<svg id="Layer_1" data-name="Layer 1" xmlns="http://www.w3.org/2000/svg" viewBox="0 0 262.122 133.622">
  <defs>
    <style>
      .cls-1 {
        fill: #0a483b;
      }
    </style>
  </defs>
  <title>LC_logo_626_small</title>
  <g>
    <g>
      <path class="cls-1" d="M272.552,79.294H168.774L107.591,5.189,51.824,68.237a54.087,54.087,0,0,1,68.318,34.308h152.41Z" transform="translate(-10.43 -5.189)"/>
      <path class="cls-1" d="M272.552,138.811V107.477H116.771a54.145,54.145,0,0,0-105.31,16.66l-.017,0-1.014,14.67H272.552Z" transform="translate(-10.43 -5.189)"/>
      <polygon class="cls-1" points="128.552 29.505 161.539 69.458 262.118 69.458 262.118 56.247 169.2 56.247 138.768 19.393 128.552 29.505"/>
    </g>
    <path class="cls-1" d="M190.88,22.441l-.091,4.929H180.427V26.8h.358a1.63,1.63,0,0,0,1.083-.272,1.353,1.353,0,0,0,.388-.846,24.668,24.668,0,0,0,.086-2.672V14.8a23.473,23.473,0,0,0-.086-2.581,1.218,1.218,0,0,0-.363-.8,2.126,2.126,0,0,0-1.2-.224h-.268v-.565h5.857v.565h-.544a2.188,2.188,0,0,0-1.174.207,1.1,1.1,0,0,0-.375.76A21.987,21.987,0,0,0,184.1,14.8v8.77a20.485,20.485,0,0,0,.073,2.27,1.082,1.082,0,0,0,.388.712,2.477,2.477,0,0,0,1.372.25h.928a3.906,3.906,0,0,0,1.67-.272,2.685,2.685,0,0,0,1.036-1.183,11.385,11.385,0,0,0,.893-2.9Z" transform="translate(-10.43 -5.189)"/>
    <path class="cls-1" d="M180.633,27.163h9.953l.082-4.515h-.043a11.049,11.049,0,0,1-.88,2.792,2.849,2.849,0,0,1-1.122,1.273,4.049,4.049,0,0,1-1.765.293h-.924a2.5,2.5,0,0,1-1.5-.3,1.29,1.29,0,0,1-.47-.837,21.179,21.179,0,0,1-.073-2.3V14.8a21.548,21.548,0,0,1,.1-2.68,1.329,1.329,0,0,1,.453-.889,2.322,2.322,0,0,1,1.3-.246h.332v-.151h-5.442v.151h.06a2.249,2.249,0,0,1,1.334.268,1.45,1.45,0,0,1,.436.937,24.283,24.283,0,0,1,.086,2.611v8.209a25.426,25.426,0,0,1-.086,2.706,1.569,1.569,0,0,1-.453.967,1.775,1.775,0,0,1-1.226.328h-.151ZM191,27.577H180.218v-.984h.565a1.443,1.443,0,0,0,.945-.216,1.184,1.184,0,0,0,.319-.725,23.061,23.061,0,0,0,.086-2.646V14.8a21.827,21.827,0,0,0-.086-2.551,1.033,1.033,0,0,0-.285-.673c-.078-.065-.328-.177-1.07-.177h-.475v-.98h6.271v.98h-.747a1.979,1.979,0,0,0-1.057.168.943.943,0,0,0-.289.626A21.362,21.362,0,0,0,184.3,14.8v8.77a19.693,19.693,0,0,0,.073,2.236.876.876,0,0,0,.315.583c.095.078.388.207,1.243.207h.924a3.708,3.708,0,0,0,1.58-.25,2.508,2.508,0,0,0,.945-1.1,11.256,11.256,0,0,0,.872-2.849l.035-.164h.8Z" transform="translate(-10.43 -5.189)"/>
    <path class="cls-1" d="M199.569,20.638,197.411,13.5l-2.149,7.134Zm.155.557h-4.635l-.315,1.062a13.915,13.915,0,0,0-.7,3.013,1.58,1.58,0,0,0,.371,1.144,1.275,1.275,0,0,0,.958.388v.57h-3.625V26.8a1.828,1.828,0,0,0,1.208-.786,11.378,11.378,0,0,0,.954-2.572c.026-.121.173-.6.432-1.433l3.543-11.619h.35l4.074,13.3.561,1.752a2.385,2.385,0,0,0,.509.937,1.548,1.548,0,0,0,.954.423v.57h-4.8V26.8a2.666,2.666,0,0,0,1.2-.177.752.752,0,0,0,.306-.712,9.156,9.156,0,0,0-.414-1.618Z" transform="translate(-10.43 -5.189)"/>
    <path class="cls-1" d="M195.541,20.434h3.751l-1.882-6.211Zm4.307.414h-4.864l2.426-8.067Zm-.069,6.314h4.381v-.186a1.68,1.68,0,0,1-.9-.457,2.636,2.636,0,0,1-.557-1.014l-.557-1.752L198.113,10.6h-.043l-3.5,11.472c-.319,1.027-.406,1.338-.427,1.424a11.262,11.262,0,0,1-.984,2.637,2.009,2.009,0,0,1-1.17.833v.2H195.2v-.168a1.416,1.416,0,0,1-.9-.44,1.788,1.788,0,0,1-.432-1.286,13.837,13.837,0,0,1,.712-3.073l.354-1.208h4.946l.98,3.25a7.56,7.56,0,0,1,.423,1.675.935.935,0,0,1-.414.889,2.315,2.315,0,0,1-1.088.207Zm4.8.414h-5.209v-.984h.207a2.483,2.483,0,0,0,1.088-.147c.052-.03.207-.121.207-.535a8.337,8.337,0,0,0-.406-1.558l-.889-2.952h-4.325l-.272.915a13.845,13.845,0,0,0-.695,2.952,1.387,1.387,0,0,0,.315,1,1.076,1.076,0,0,0,.811.324h.207v.984h-4.04v-.945l.16-.035a1.608,1.608,0,0,0,1.079-.695,11.362,11.362,0,0,0,.928-2.516c.03-.121.168-.6.432-1.437l3.591-11.765h.656l.043.142L203.1,25.38a2.251,2.251,0,0,0,.462.855,1.4,1.4,0,0,0,.833.363l.181.022Z" transform="translate(-10.43 -5.189)"/>
    <path class="cls-1" d="M209.16,18.724c.449-.017.915-.039,1.394-.073a4,4,0,0,0,1.252-.272,2.065,2.065,0,0,0,.859-.652,3.106,3.106,0,0,0,.518-1.114,6.615,6.615,0,0,0,.19-1.7,5.376,5.376,0,0,0-.647-2.827q-.641-1.062-2.8-1.062a7.517,7.517,0,0,0-.764.047Zm9.223,8.645H215.1a19.844,19.844,0,0,1-2.672-4.4c-.384-.755-.786-1.48-1.2-2.18a7.977,7.977,0,0,0-.859-1.273,1.007,1.007,0,0,0-.725-.224h-.488V23.01q0,1.975.069,2.585a1.5,1.5,0,0,0,.358.911,1.607,1.607,0,0,0,1.122.293h.583v.57h-5.84V26.8h.4a1.63,1.63,0,0,0,1.083-.272,1.351,1.351,0,0,0,.384-.846q.078-.576.078-2.672V14.8a25.645,25.645,0,0,0-.078-2.581,1.218,1.218,0,0,0-.363-.8,2.163,2.163,0,0,0-1.2-.22h-.207v-.57l1.748-.125q1.742-.11,2.771-.108a7.6,7.6,0,0,1,2.836.445,3.8,3.8,0,0,1,1.77,1.454,4.274,4.274,0,0,1,.673,2.421,4.514,4.514,0,0,1-.88,2.805,3.884,3.884,0,0,1-2.59,1.442,12.755,12.755,0,0,1,2.464,3.66,16.461,16.461,0,0,0,2.175,3.345,2.744,2.744,0,0,0,1.873.837Z" transform="translate(-10.43 -5.189)"/>
    <path class="cls-1" d="M209.368,11.254v7.255c.38-.017.773-.039,1.174-.065a3.62,3.62,0,0,0,1.183-.259,1.821,1.821,0,0,0,.773-.583,2.9,2.9,0,0,0,.483-1.044,6.379,6.379,0,0,0,.181-1.649,5.272,5.272,0,0,0-.609-2.723c-.388-.634-1.273-.958-2.628-.958q-.246,0-.557.026m-.414,7.687V10.883l.186-.022a6.82,6.82,0,0,1,.786-.052c1.511,0,2.516.393,2.978,1.165a5.606,5.606,0,0,1,.678,2.935,6.793,6.793,0,0,1-.2,1.757,3.353,3.353,0,0,1-.552,1.191,2.3,2.3,0,0,1-.941.712,4.1,4.1,0,0,1-1.321.289c-.483.03-.945.056-1.4.073Zm6.232,8.222h2.991v-.168a2.96,2.96,0,0,1-1.813-.889,16.234,16.234,0,0,1-2.214-3.388c-1.385-2.572-2.067-3.371-2.4-3.587l-.44-.293.522-.082a3.726,3.726,0,0,0,2.46-1.368,4.346,4.346,0,0,0,.837-2.676,4.038,4.038,0,0,0-.639-2.3,3.643,3.643,0,0,0-1.675-1.381,7.426,7.426,0,0,0-2.758-.427c-.695,0-1.623.035-2.758.108l-1.554.112v.164a2.249,2.249,0,0,1,1.334.268,1.41,1.41,0,0,1,.436.937A24.266,24.266,0,0,1,207.6,14.8v8.209a25.607,25.607,0,0,1-.082,2.706,1.521,1.521,0,0,1-.449.967,1.769,1.769,0,0,1-1.221.328h-.19v.155h5.425v-.155h-.375a1.763,1.763,0,0,1-1.269-.354,1.707,1.707,0,0,1-.419-1.032c-.047-.423-.069-1.278-.069-2.615V19.088h.695a1.205,1.205,0,0,1,.872.285,8.29,8.29,0,0,1,.889,1.312c.419.708.824,1.446,1.2,2.193a21.246,21.246,0,0,0,2.577,4.286m3.405.414h-3.574l-.06-.06a19.455,19.455,0,0,1-2.715-4.45c-.38-.742-.777-1.472-1.191-2.167a7.066,7.066,0,0,0-.824-1.23.805.805,0,0,0-.578-.168h-.281v3.5c0,1.308.022,2.171.065,2.568a1.325,1.325,0,0,0,.3.786c.108.108.363.233.975.233h.79v.984h-6.254v-.984h.6a1.453,1.453,0,0,0,.945-.216,1.207,1.207,0,0,0,.315-.725,25.936,25.936,0,0,0,.078-2.646V14.8a24.719,24.719,0,0,0-.078-2.551,1.044,1.044,0,0,0-.285-.673c-.082-.065-.332-.177-1.075-.177h-.414V10.43l1.938-.138c1.148-.073,2.085-.108,2.788-.108a7.691,7.691,0,0,1,2.913.457,4.012,4.012,0,0,1,1.864,1.536,4.475,4.475,0,0,1,.708,2.533,4.739,4.739,0,0,1-.924,2.931,3.983,3.983,0,0,1-2.3,1.437,18.336,18.336,0,0,1,2.2,3.44,16.323,16.323,0,0,0,2.141,3.3,2.523,2.523,0,0,0,1.735.777l.2.009Z" transform="translate(-10.43 -5.189)"/>
    <path class="cls-1" d="M219.632,11.191v-.57h5.576v.57h-.259a2.262,2.262,0,0,0-1.178.2,1.161,1.161,0,0,0-.375.76,22.47,22.47,0,0,0-.091,2.641v8.213q0,1.975.065,2.59a1.5,1.5,0,0,0,.363.906,1.57,1.57,0,0,0,1.118.3h.358v.565h-5.576V26.8h.363a1.646,1.646,0,0,0,1.083-.272,1.36,1.36,0,0,0,.38-.846,25.171,25.171,0,0,0,.082-2.676V14.795a23.742,23.742,0,0,0-.082-2.577,1.209,1.209,0,0,0-.358-.807,2.163,2.163,0,0,0-1.2-.22Z" transform="translate(-10.43 -5.189)"/>
    <path class="cls-1" d="M219.842,27.163H225v-.155h-.151a1.77,1.77,0,0,1-1.269-.354,1.682,1.682,0,0,1-.419-1.032c-.047-.419-.069-1.3-.069-2.615V14.8a21.355,21.355,0,0,1,.1-2.68,1.309,1.309,0,0,1,.453-.889,2.322,2.322,0,0,1,1.3-.246H225v-.151h-5.162v.151h.052a2.258,2.258,0,0,1,1.334.268,1.421,1.421,0,0,1,.44.937,26.09,26.09,0,0,1,.082,2.611v8.209c0,1.4-.03,2.309-.082,2.706a1.546,1.546,0,0,1-.453.967,1.769,1.769,0,0,1-1.221.328h-.151Zm5.576.414h-5.995v-.984h.57a1.462,1.462,0,0,0,.945-.216,1.207,1.207,0,0,0,.315-.725,25.1,25.1,0,0,0,.078-2.646V14.8a23.75,23.75,0,0,0-.078-2.551,1.033,1.033,0,0,0-.285-.673c-.082-.065-.332-.177-1.075-.177h-.47v-.98h5.995v.98h-.466a1.965,1.965,0,0,0-1.057.168.964.964,0,0,0-.293.626,22.644,22.644,0,0,0-.091,2.607v8.209c0,1.3.026,2.162.065,2.568a1.325,1.325,0,0,0,.3.786c.108.108.363.233.975.233h.565Z" transform="translate(-10.43 -5.189)"/>
    <path class="cls-1" d="M234.228,24.478l4.441-13.854h3.746v.565h-.449a2.2,2.2,0,0,0-1.178.207,1.122,1.122,0,0,0-.375.76,21.987,21.987,0,0,0-.095,2.641V23.01q0,1.975.073,2.585a1.528,1.528,0,0,0,.363.911,1.607,1.607,0,0,0,1.122.293h.539v.57h-5.831V26.8h.432a1.611,1.611,0,0,0,1.075-.272,1.353,1.353,0,0,0,.388-.846,24.668,24.668,0,0,0,.086-2.672V12.354L233.731,27.37h-.423L228.44,12.354V22.16a26.819,26.819,0,0,0,.091,2.741,2.383,2.383,0,0,0,.557,1.278,1.856,1.856,0,0,0,1.316.621v.57H226.04V26.8a1.878,1.878,0,0,0,1.273-.587,2.3,2.3,0,0,0,.6-1.29,23.994,23.994,0,0,0,.108-2.84V14.8a23.9,23.9,0,0,0-.082-2.581,1.238,1.238,0,0,0-.363-.8,2.126,2.126,0,0,0-1.2-.224h-.332v-.565h3.716Z" transform="translate(-10.43 -5.189)"/>
    <path class="cls-1" d="M233.458,27.163h.125l.643-2.011L229.6,10.831h-3.358v.151h.125a2.224,2.224,0,0,1,1.329.268,1.431,1.431,0,0,1,.44.937,24.283,24.283,0,0,1,.086,2.611v7.285a24.116,24.116,0,0,1-.112,2.87,2.5,2.5,0,0,1-.652,1.4,2.07,2.07,0,0,1-1.217.63v.177H230.2v-.177a2,2,0,0,1-1.265-.673,2.6,2.6,0,0,1-.6-1.385,27.245,27.245,0,0,1-.091-2.771V11.038Zm3.336,0h5.412v-.155h-.332a1.758,1.758,0,0,1-1.265-.354,1.737,1.737,0,0,1-.427-1.032c-.047-.419-.073-1.278-.073-2.615V14.8a21.752,21.752,0,0,1,.1-2.68,1.329,1.329,0,0,1,.453-.889,2.322,2.322,0,0,1,1.3-.246h.242v-.151h-3.384l-4.1,12.762,4.044-12.564V23.007a25.426,25.426,0,0,1-.086,2.706,1.569,1.569,0,0,1-.453.967,1.764,1.764,0,0,1-1.217.328h-.22Zm5.827.414h-6.245v-.984h.639a1.43,1.43,0,0,0,.937-.216,1.184,1.184,0,0,0,.319-.725,23.061,23.061,0,0,0,.086-2.646V13.675l-4.471,13.9h-.725l-.047-.142L228.65,13.667v8.49c0,1.334.03,2.249.086,2.719a2.181,2.181,0,0,0,.514,1.17,1.638,1.638,0,0,0,1.17.548l.19.017v.967h-4.778V26.61l.19-.017a1.663,1.663,0,0,0,1.139-.522,2.092,2.092,0,0,0,.544-1.178,24.31,24.31,0,0,0,.108-2.81V14.8a22.9,22.9,0,0,0-.086-2.551,1.033,1.033,0,0,0-.285-.673c-.082-.065-.328-.177-1.07-.177h-.539v-.98h4.074l.047.142L234.226,23.8l4.294-13.384h4.1v.98h-.656a1.979,1.979,0,0,0-1.057.168.964.964,0,0,0-.293.626,20.976,20.976,0,0,0-.091,2.607v8.209c0,1.308.026,2.171.073,2.564a1.327,1.327,0,0,0,.306.79c.1.108.358.233.971.233h.747Z" transform="translate(-10.43 -5.189)"/>
    <path class="cls-1" d="M253.283,22.158h.432l-.259,5.209H243.348V26.8h.255a1.491,1.491,0,0,0,1.174-.337,1.685,1.685,0,0,0,.337-.846c.047-.341.073-1.208.073-2.611V14.8a25.065,25.065,0,0,0-.078-2.516,1.332,1.332,0,0,0-.35-.846,1.891,1.891,0,0,0-1.157-.242v-.57h8.718l.289,4.174h-.423a8.032,8.032,0,0,0-.708-2.486,1.882,1.882,0,0,0-.993-.928,6.538,6.538,0,0,0-1.856-.19h-1.692v7.026h1.3a2.659,2.659,0,0,0,1.243-.207,1.036,1.036,0,0,0,.47-.639,7.975,7.975,0,0,0,.112-1.662h.423v5.732h-.423a6.491,6.491,0,0,0-.173-1.873.98.98,0,0,0-.5-.617,3.037,3.037,0,0,0-1.109-.142h-1.342v3.966a11.545,11.545,0,0,0,.281,3.5c.186.35.686.527,1.5.527h.911a2.679,2.679,0,0,0,2.767-1.735,10,10,0,0,0,.885-2.909" transform="translate(-10.43 -5.189)"/>
    <path class="cls-1" d="M243.558,27.163h9.7l.242-4.8h-.039a10.147,10.147,0,0,1-.876,2.8,2.89,2.89,0,0,1-2.952,1.843h-.911c-.906,0-1.459-.207-1.683-.634-.129-.246-.3-.889-.3-3.6V18.6h1.545a3.21,3.21,0,0,1,1.2.16,1.184,1.184,0,0,1,.613.738,6.129,6.129,0,0,1,.181,1.735h.009l-.009-5.313a7.26,7.26,0,0,1-.117,1.506,1.192,1.192,0,0,1-.565.76,2.742,2.742,0,0,1-1.351.242h-1.5V10.982h1.9a6.645,6.645,0,0,1,1.916.2,2.08,2.08,0,0,1,1.109,1.019,7.758,7.758,0,0,1,.7,2.387h.026l-.259-3.759h-8.321v.155a1.777,1.777,0,0,1,1.088.289,1.5,1.5,0,0,1,.419.975c.052.414.078,1.269.078,2.546v8.209a25.949,25.949,0,0,1-.073,2.641,1.921,1.921,0,0,1-.38.95,1.66,1.66,0,0,1-1.338.41h-.043Zm10.1.414H243.144v-.984h.457c.669,0,.919-.138,1.014-.255a1.555,1.555,0,0,0,.293-.747c.047-.332.069-1.2.069-2.585V14.8c0-1.256-.022-2.1-.073-2.495a1.159,1.159,0,0,0-.285-.716c-.078-.069-.319-.19-1.019-.19h-.207v-.98h9.124L252.829,15h-.82l-.026-.177a8.054,8.054,0,0,0-.682-2.417,1.671,1.671,0,0,0-.88-.829,6.238,6.238,0,0,0-1.787-.186h-1.485v6.616h1.088a2.456,2.456,0,0,0,1.139-.181.8.8,0,0,0,.371-.509,7.53,7.53,0,0,0,.108-1.61v-.207h.837v6.142h-.837V21.44a6.368,6.368,0,0,0-.16-1.8.775.775,0,0,0-.384-.5,2.856,2.856,0,0,0-1.032-.125h-1.131v3.755c0,2.542.16,3.228.255,3.405.142.272.6.414,1.316.414h.911a3.1,3.1,0,0,0,1.485-.315,3.14,3.14,0,0,0,1.1-1.312,9.916,9.916,0,0,0,.863-2.844l.03-.173h.824Z" transform="translate(-10.43 -5.189)"/>
    <path class="cls-1" d="M258.457,18.724c.449-.017.915-.039,1.394-.073a4,4,0,0,0,1.252-.272,2.065,2.065,0,0,0,.859-.652,3.106,3.106,0,0,0,.518-1.114,6.615,6.615,0,0,0,.19-1.7,5.419,5.419,0,0,0-.643-2.827q-.647-1.062-2.8-1.062a7.522,7.522,0,0,0-.768.047Zm9.223,8.645H264.4a19.844,19.844,0,0,1-2.672-4.4q-.576-1.133-1.2-2.18a8.4,8.4,0,0,0-.855-1.273,1.018,1.018,0,0,0-.729-.224h-.488V23.01q0,1.975.069,2.585a1.5,1.5,0,0,0,.358.911,1.614,1.614,0,0,0,1.122.293h.583v.57h-5.84V26.8h.4a1.63,1.63,0,0,0,1.083-.272,1.351,1.351,0,0,0,.384-.846,25.6,25.6,0,0,0,.078-2.672V14.8a24.339,24.339,0,0,0-.078-2.581,1.2,1.2,0,0,0-.363-.8,2.163,2.163,0,0,0-1.2-.22h-.207v-.57l1.748-.125q1.742-.11,2.771-.108a7.6,7.6,0,0,1,2.836.445,3.8,3.8,0,0,1,1.77,1.454,4.274,4.274,0,0,1,.673,2.421,4.514,4.514,0,0,1-.88,2.805,3.884,3.884,0,0,1-2.59,1.442,12.755,12.755,0,0,1,2.464,3.66,16.461,16.461,0,0,0,2.175,3.345,2.744,2.744,0,0,0,1.873.837Z" transform="translate(-10.43 -5.189)"/>
    <path class="cls-1" d="M258.665,11.254v7.255c.38-.017.773-.039,1.174-.065a3.594,3.594,0,0,0,1.183-.259,1.821,1.821,0,0,0,.773-.583,2.9,2.9,0,0,0,.483-1.044,6.36,6.36,0,0,0,.186-1.649,5.27,5.27,0,0,0-.613-2.723c-.388-.634-1.273-.958-2.628-.958q-.246,0-.557.026m-.414,7.687V10.883l.186-.022a6.82,6.82,0,0,1,.786-.052c1.511,0,2.516.393,2.982,1.165a5.649,5.649,0,0,1,.673,2.935,6.793,6.793,0,0,1-.2,1.757,3.353,3.353,0,0,1-.552,1.191,2.3,2.3,0,0,1-.941.712,4.1,4.1,0,0,1-1.316.289c-.483.03-.95.056-1.4.073Zm6.232,8.222h2.991v-.168a2.96,2.96,0,0,1-1.813-.889,16.092,16.092,0,0,1-2.21-3.388c-1.39-2.572-2.072-3.371-2.4-3.587l-.44-.293.522-.082a3.726,3.726,0,0,0,2.46-1.368,4.319,4.319,0,0,0,.837-2.676,4.038,4.038,0,0,0-.639-2.3,3.643,3.643,0,0,0-1.675-1.381,7.426,7.426,0,0,0-2.758-.427c-.695,0-1.623.035-2.758.108l-1.554.112v.164a2.249,2.249,0,0,1,1.334.268,1.41,1.41,0,0,1,.436.937A24.266,24.266,0,0,1,256.9,14.8v8.209a25.607,25.607,0,0,1-.082,2.706,1.541,1.541,0,0,1-.445.967,1.789,1.789,0,0,1-1.226.328h-.19v.155h5.425v-.155h-.375a1.77,1.77,0,0,1-1.269-.354,1.707,1.707,0,0,1-.419-1.032c-.047-.423-.069-1.278-.069-2.615V19.088h.695a1.205,1.205,0,0,1,.872.285,8.29,8.29,0,0,1,.889,1.312c.419.708.824,1.446,1.2,2.193a21.246,21.246,0,0,0,2.577,4.286m3.405.414h-3.574l-.06-.06a19.617,19.617,0,0,1-2.715-4.45c-.38-.742-.777-1.472-1.191-2.167a7.213,7.213,0,0,0-.82-1.23.825.825,0,0,0-.583-.168h-.281v3.5c0,1.308.022,2.171.065,2.568a1.325,1.325,0,0,0,.3.786c.108.108.363.233.975.233h.79v.984h-6.254v-.984h.6a1.453,1.453,0,0,0,.945-.216,1.207,1.207,0,0,0,.315-.725,25.936,25.936,0,0,0,.078-2.646V14.8a24.719,24.719,0,0,0-.078-2.551,1.044,1.044,0,0,0-.285-.673c-.082-.065-.332-.177-1.075-.177h-.414V10.43l1.938-.138c1.148-.073,2.085-.108,2.788-.108a7.691,7.691,0,0,1,2.913.457,4.012,4.012,0,0,1,1.864,1.536,4.475,4.475,0,0,1,.708,2.533,4.713,4.713,0,0,1-.924,2.931,3.983,3.983,0,0,1-2.3,1.437,18.336,18.336,0,0,1,2.2,3.44,16.323,16.323,0,0,0,2.141,3.3,2.532,2.532,0,0,0,1.735.777l.2.009Z" transform="translate(-10.43 -5.189)"/>
    <path class="cls-1" d="M192.139,45.682h.406v6.163h-.406a5.729,5.729,0,0,0-.613-1.856,5.014,5.014,0,0,1-4.325,2.624,5.4,5.4,0,0,1-4.54-2.413,10.576,10.576,0,0,1-1.765-6.388,14.7,14.7,0,0,1,.811-4.912,7.2,7.2,0,0,1,2.27-3.423,5.149,5.149,0,0,1,3.2-1.114,4.43,4.43,0,0,1,2.6.811,5.82,5.82,0,0,1,1.748,1.8,8.355,8.355,0,0,0,.488-2.283h.419l.112,6.672h-.406q-.427-3.561-1.735-4.946a3.988,3.988,0,0,0-2.956-1.39,3.577,3.577,0,0,0-3.2,2.244,13.985,13.985,0,0,0-1.187,6.426,11.692,11.692,0,0,0,1.295,6.068,3.761,3.761,0,0,0,3.224,2.106,3.911,3.911,0,0,0,2.106-.686,4.565,4.565,0,0,0,1.709-2.331,11.234,11.234,0,0,0,.742-3.172" transform="translate(-10.43 -5.189)"/>
    <path class="cls-1" d="M187.176,34.573a4.945,4.945,0,0,0-3.073,1.075,7,7,0,0,0-2.2,3.323,14.4,14.4,0,0,0-.8,4.843,10.413,10.413,0,0,0,1.722,6.262,5.218,5.218,0,0,0,4.376,2.331,4.782,4.782,0,0,0,4.148-2.529l.186-.289.168.3a5.653,5.653,0,0,1,.609,1.748h.026l-.009-5.749a11.5,11.5,0,0,1-.742,3.043,4.8,4.8,0,0,1-1.787,2.43,4.172,4.172,0,0,1-2.218.721,3.968,3.968,0,0,1-3.4-2.21,11.918,11.918,0,0,1-1.325-6.176,14.281,14.281,0,0,1,1.208-6.521,3.791,3.791,0,0,1,3.384-2.357,4.2,4.2,0,0,1,3.107,1.454c.876.932,1.472,2.568,1.765,4.881h.013l-.125-6.258a8.5,8.5,0,0,1-.492,2.149l-.151.414-.22-.384a5.624,5.624,0,0,0-1.683-1.726,4.245,4.245,0,0,0-2.486-.777M187.2,52.82a5.615,5.615,0,0,1-4.709-2.5,10.8,10.8,0,0,1-1.8-6.508,14.888,14.888,0,0,1,.824-4.981,7.415,7.415,0,0,1,2.339-3.518,5.358,5.358,0,0,1,3.323-1.157A4.7,4.7,0,0,1,189.9,35a6.423,6.423,0,0,1,1.562,1.5,7.926,7.926,0,0,0,.345-1.83l.013-.19h.816l.121,7.087h-.8l-.022-.181c-.276-2.318-.842-3.94-1.679-4.83a3.8,3.8,0,0,0-2.805-1.325,3.361,3.361,0,0,0-3.017,2.136A13.87,13.87,0,0,0,183.27,43.7a11.509,11.509,0,0,0,1.265,5.96,3.533,3.533,0,0,0,3.047,2.007,3.757,3.757,0,0,0,1.994-.652,4.408,4.408,0,0,0,1.627-2.231,11.067,11.067,0,0,0,.729-3.116l.013-.19h.807v6.582h-.79l-.03-.177a5.649,5.649,0,0,0-.436-1.48A5.117,5.117,0,0,1,187.2,52.82" transform="translate(-10.43 -5.189)"/>
    <path class="cls-1" d="M196.98,43.463a13.044,13.044,0,0,0,1.23,6.375,4.023,4.023,0,0,0,3.7,2.128,3.834,3.834,0,0,0,3.423-2.128,12.7,12.7,0,0,0,1.26-6.349,12.962,12.962,0,0,0-1.239-6.288,4.034,4.034,0,0,0-7.147-.052,12.906,12.906,0,0,0-1.23,6.314m-2.167-.091a10.122,10.122,0,0,1,1.985-6.543,6.12,6.12,0,0,1,4.955-2.464A6.24,6.24,0,0,1,206.76,36.8a10.153,10.153,0,0,1,2.011,6.66,10.662,10.662,0,0,1-1.925,6.621,6.284,6.284,0,0,1-10.078,0,10.684,10.684,0,0,1-1.955-6.711" transform="translate(-10.43 -5.189)"/>
    <path class="cls-1" d="M201.765,35.22a3.66,3.66,0,0,0-3.371,2.033,12.72,12.72,0,0,0-1.2,6.211,12.829,12.829,0,0,0,1.2,6.267,3.789,3.789,0,0,0,3.522,2.029,3.62,3.62,0,0,0,3.246-2.029,12.634,12.634,0,0,0,1.226-6.241,12.808,12.808,0,0,0-1.208-6.185,3.7,3.7,0,0,0-3.414-2.085m.151,16.953a4.229,4.229,0,0,1-3.884-2.231,13.307,13.307,0,0,1-1.26-6.478,13.132,13.132,0,0,1,1.26-6.418,4.241,4.241,0,0,1,7.505.052,13.171,13.171,0,0,1,1.265,6.392,12.954,12.954,0,0,1-1.286,6.452,4.037,4.037,0,0,1-3.6,2.231m-.16-17.6a5.946,5.946,0,0,0-4.8,2.387,9.984,9.984,0,0,0-1.938,6.414,10.527,10.527,0,0,0,1.912,6.582,6.068,6.068,0,0,0,9.745,0,10.47,10.47,0,0,0,1.882-6.491,9.993,9.993,0,0,0-1.964-6.526,6.05,6.05,0,0,0-4.843-2.365m.026,18.248a6.3,6.3,0,0,1-5.175-2.611,10.917,10.917,0,0,1-2-6.836,10.375,10.375,0,0,1,2.033-6.672,6.344,6.344,0,0,1,5.119-2.542,6.471,6.471,0,0,1,5.166,2.512,10.432,10.432,0,0,1,2.054,6.793,10.921,10.921,0,0,1-1.964,6.746,6.3,6.3,0,0,1-5.231,2.611" transform="translate(-10.43 -5.189)"/>
    <path class="cls-1" d="M218.823,34.689H223.1v.6a1.823,1.823,0,0,0-1.787,1.532,16.546,16.546,0,0,0-.091,2.167V44.84a31.153,31.153,0,0,1-.129,3.336,5.585,5.585,0,0,1-.738,2.141,4.531,4.531,0,0,1-1.713,1.675,5.618,5.618,0,0,1-5.455-.177,4.436,4.436,0,0,1-1.692-2.063,9.368,9.368,0,0,1-.5-3.392l.009-1.8V39.078a24.3,24.3,0,0,0-.091-2.715,1.281,1.281,0,0,0-.375-.842,2.2,2.2,0,0,0-1.265-.237h-.293v-.6h5.857v.6h-.259a2.333,2.333,0,0,0-1.234.216,1.177,1.177,0,0,0-.393.8,21.983,21.983,0,0,0-.1,2.779V44.62a30.314,30.314,0,0,0,.19,4.087,3.82,3.82,0,0,0,1.092,2.111,3.236,3.236,0,0,0,2.4.9,4.026,4.026,0,0,0,3.556-2.106,5.175,5.175,0,0,0,.574-1.856q.1-.958.1-3v-6a11.508,11.508,0,0,0-.125-2.089,1.609,1.609,0,0,0-.527-.945,2.268,2.268,0,0,0-1.286-.432Z" transform="translate(-10.43 -5.189)"/>
    <path class="cls-1" d="M209.19,35.077h.086a2.328,2.328,0,0,1,1.39.281,1.483,1.483,0,0,1,.453.975,23.678,23.678,0,0,1,.091,2.745l-.009,7.281a9.144,9.144,0,0,0,.492,3.315,4.23,4.23,0,0,0,1.614,1.968,5.386,5.386,0,0,0,5.235.164,4.238,4.238,0,0,0,1.636-1.593,5.308,5.308,0,0,0,.712-2.063,30.819,30.819,0,0,0,.129-3.31V38.983a16,16,0,0,1,.095-2.2,2.143,2.143,0,0,1,.57-1.114,2.042,2.042,0,0,1,1.213-.57v-.2H219.03v.2a2.254,2.254,0,0,1,1.217.462,1.846,1.846,0,0,1,.6,1.057,12.012,12.012,0,0,1,.125,2.132v6a29.925,29.925,0,0,1-.1,3.025,5.441,5.441,0,0,1-.6,1.929,4.083,4.083,0,0,1-1.5,1.584,4.13,4.13,0,0,1-2.24.639,3.453,3.453,0,0,1-2.542-.967,3.99,3.99,0,0,1-1.148-2.223,29.972,29.972,0,0,1-.194-4.117V39.078a22.536,22.536,0,0,1,.1-2.814,1.386,1.386,0,0,1,.475-.932,2.445,2.445,0,0,1,1.36-.255h.052V34.9H209.19Zm6.9,17.743a5.292,5.292,0,0,1-3.013-.833,4.678,4.678,0,0,1-1.774-2.158,9.607,9.607,0,0,1-.518-3.47l.009-1.8V39.078a25.2,25.2,0,0,0-.086-2.685,1.143,1.143,0,0,0-.3-.712,2.013,2.013,0,0,0-1.131-.186h-.5V34.482h6.271V35.5h-.466a2.082,2.082,0,0,0-1.114.173,1,1,0,0,0-.311.665,22.6,22.6,0,0,0-.095,2.745V44.62a29.843,29.843,0,0,0,.19,4.053,3.579,3.579,0,0,0,1.036,2,3.032,3.032,0,0,0,2.244.837,3.842,3.842,0,0,0,3.375-1.994,5.111,5.111,0,0,0,.552-1.787c.065-.617.1-1.618.1-2.978v-6a12,12,0,0,0-.117-2.046,1.429,1.429,0,0,0-.466-.833,2.035,2.035,0,0,0-1.165-.375l-.19-.017v-1h4.7v.993l-.186.022a1.6,1.6,0,0,0-1.6,1.355,15.865,15.865,0,0,0-.091,2.132V44.84A31.845,31.845,0,0,1,221.3,48.2a5.762,5.762,0,0,1-.764,2.223,4.734,4.734,0,0,1-1.8,1.752,5.326,5.326,0,0,1-2.654.647" transform="translate(-10.43 -5.189)"/>
    <path class="cls-1" d="M235.448,52.691l-9.068-16.5V48.409a11.34,11.34,0,0,0,.108,2,1.587,1.587,0,0,0,.617.88,2.423,2.423,0,0,0,1.532.406v.6h-4.782v-.6a2.782,2.782,0,0,0,1.4-.462,1.368,1.368,0,0,0,.57-.8,13.009,13.009,0,0,0,.095-2.024V39.078a16.381,16.381,0,0,0-.142-2.715,1.311,1.311,0,0,0-.432-.88,2.794,2.794,0,0,0-1.329-.2v-.6H227.8l7.6,13.772V37.934a5.24,5.24,0,0,0-.177-1.636,1.375,1.375,0,0,0-.712-.738,2.816,2.816,0,0,0-1.3-.276v-.6h4.657v.6a2.721,2.721,0,0,0-1.282.432,1.469,1.469,0,0,0-.6.811,7.156,7.156,0,0,0-.125,1.6V52.691Z" transform="translate(-10.43 -5.189)"/>
    <path class="cls-1" d="M235.572,52.484h.073V38.129a6.742,6.742,0,0,1,.138-1.657,1.666,1.666,0,0,1,.669-.928,2.836,2.836,0,0,1,1.2-.44V34.9h-4.234v.19a2.894,2.894,0,0,1,1.183.289,1.569,1.569,0,0,1,.811.85,5.263,5.263,0,0,1,.19,1.709V49.268L227.674,34.9h-3.453v.186a2.508,2.508,0,0,1,1.234.224,1.5,1.5,0,0,1,.527,1.019,17.042,17.042,0,0,1,.142,2.749V48.41a13.03,13.03,0,0,1-.095,2.063,1.624,1.624,0,0,1-.647.924,2.8,2.8,0,0,1-1.321.479v.207h4.368V51.9a2.444,2.444,0,0,1-1.45-.445,1.789,1.789,0,0,1-.695-1,11.265,11.265,0,0,1-.112-2.041V35.388Zm.488.414h-.738l-.056-.108L226.587,37V48.41a11.237,11.237,0,0,0,.1,1.951,1.375,1.375,0,0,0,.544.764,2.265,2.265,0,0,0,1.4.358h.211V52.5h-5.2V51.5l.186-.022a2.517,2.517,0,0,0,1.295-.419,1.23,1.23,0,0,0,.5-.673,12.482,12.482,0,0,0,.086-1.981V39.074a16.556,16.556,0,0,0-.138-2.672c-.095-.5-.242-.682-.341-.747a2.549,2.549,0,0,0-1.217-.164h-.207v-1.01h4.113l.056.108,7.208,13.06V37.935a5.113,5.113,0,0,0-.164-1.567,1.166,1.166,0,0,0-.613-.626,2.678,2.678,0,0,0-1.2-.25H233v-1.01h5.071v.988l-.186.022a2.48,2.48,0,0,0-1.183.393,1.268,1.268,0,0,0-.518.695,6.662,6.662,0,0,0-.121,1.549Z" transform="translate(-10.43 -5.189)"/>
    <path class="cls-1" d="M239.361,38.92h-.436l.069-4.23h12.443l.065,4.23H251.1a8.731,8.731,0,0,0-.6-2.512,1.84,1.84,0,0,0-.811-.945,4.429,4.429,0,0,0-1.485-.177h-2.063V47.707q0,2.065.069,2.71a1.573,1.573,0,0,0,.384.962,1.672,1.672,0,0,0,1.174.311h.622v.6H242v-.6h.665a1.735,1.735,0,0,0,1.139-.285,1.466,1.466,0,0,0,.406-.889,25.581,25.581,0,0,0,.091-2.81V35.286h-1.9a5.485,5.485,0,0,0-1.662.164,1.713,1.713,0,0,0-.8.98,8.805,8.805,0,0,0-.574,2.49" transform="translate(-10.43 -5.189)"/>
    <path class="cls-1" d="M242.206,52.082h5.978V51.9h-.419a1.824,1.824,0,0,1-1.316-.375A1.744,1.744,0,0,1,246,50.441c-.047-.44-.073-1.364-.073-2.736V35.077h2.27a4.457,4.457,0,0,1,1.562.194,1.955,1.955,0,0,1,.924,1.049,8.5,8.5,0,0,1,.591,2.391h.013l-.06-3.815H239.2l-.06,3.815h.039a8.46,8.46,0,0,1,.57-2.369,1.908,1.908,0,0,1,.911-1.088,5.707,5.707,0,0,1,1.739-.177h2.111V47.705a25.9,25.9,0,0,1-.095,2.84,1.647,1.647,0,0,1-.47,1.014,1.893,1.893,0,0,1-1.282.341h-.453Zm6.392.414h-6.806V51.482h.868a1.556,1.556,0,0,0,1-.233,1.215,1.215,0,0,0,.341-.76,25.588,25.588,0,0,0,.086-2.784V35.5H242.4a5.171,5.171,0,0,0-1.593.147c-.155.06-.4.259-.682.872a8.729,8.729,0,0,0-.557,2.434l-.017.181h-.833l.073-4.648h12.853l.073,4.648h-.8l-.022-.181a8.5,8.5,0,0,0-.578-2.447,1.636,1.636,0,0,0-.7-.85A4.346,4.346,0,0,0,248.2,35.5h-1.852v12.21c0,1.36.022,2.262.069,2.693a1.4,1.4,0,0,0,.324.837,1.453,1.453,0,0,0,1.023.246h.833Z" transform="translate(-10.43 -5.189)"/>
    <path class="cls-1" d="M259.623,44.592l2.525-5.827a6.127,6.127,0,0,0,.621-2.024,1.633,1.633,0,0,0-.332-1,1.355,1.355,0,0,0-1.178-.453v-.6h4.186v.6a2.23,2.23,0,0,0-1.4.889,15.157,15.157,0,0,0-1.368,2.615L259.8,45.369v2.339a23.311,23.311,0,0,0,.1,2.861,1.313,1.313,0,0,0,.423.868,2.241,2.241,0,0,0,1.282.255v.6h-5.464v-.6h.207a1.727,1.727,0,0,0,1.139-.285,1.429,1.429,0,0,0,.4-.889,27.346,27.346,0,0,0,.086-2.81V45.542l-3.2-7.2a18.544,18.544,0,0,0-1.295-2.6,1.414,1.414,0,0,0-1.152-.449v-.6h5.2v.6c-.971,0-1.459.3-1.459.906a4.8,4.8,0,0,0,.483,1.454Z" transform="translate(-10.43 -5.189)"/>
    <path class="cls-1" d="M256.353,52.082h5.05V51.9a2.111,2.111,0,0,1-1.2-.293,1.506,1.506,0,0,1-.5-1,24.124,24.124,0,0,1-.1-2.9l.017-2.421,2.874-6.578a15,15,0,0,1,1.39-2.654,2.433,2.433,0,0,1,1.364-.932V34.9h-3.772v.19a1.447,1.447,0,0,1,1.139.531,1.872,1.872,0,0,1,.371,1.122,6.166,6.166,0,0,1-.639,2.111l-2.715,6.262-3.254-7.38a4.242,4.242,0,0,1-.5-1.536c0-.483.259-1.053,1.454-1.109V34.9h-4.782v.194a1.523,1.523,0,0,1,1.109.518,19.246,19.246,0,0,1,1.321,2.646l3.215,7.285v2.167a26.4,26.4,0,0,1-.091,2.84,1.622,1.622,0,0,1-.466,1.014,1.887,1.887,0,0,1-1.278.341Zm5.464.414h-5.883V51.482h.419a1.507,1.507,0,0,0,1-.229,1.261,1.261,0,0,0,.337-.764,27.328,27.328,0,0,0,.082-2.784V45.586l-3.177-7.165a18.665,18.665,0,0,0-1.273-2.559,1.216,1.216,0,0,0-.993-.367l-.2-.009V34.481h5.619V35.5h-.207c-1.252,0-1.252.509-1.252.7a4.379,4.379,0,0,0,.466,1.368l2.87,6.508,2.339-5.386a6,6,0,0,0,.6-1.947,1.456,1.456,0,0,0-.293-.876,1.177,1.177,0,0,0-1.01-.367h-.211V34.481h4.605v.975l-.164.035a2.009,2.009,0,0,0-1.282.807,15.113,15.113,0,0,0-1.342,2.577l-2.857,6.539v2.292a24.057,24.057,0,0,0,.1,2.831,1.131,1.131,0,0,0,.345.738,2.026,2.026,0,0,0,1.157.207h.207Z" transform="translate(-10.43 -5.189)"/>
  </g>
</svg>
